<svg width="16" height="16" viewBox="0 0 16 16" fill="none" xmlns="http://www.w3.org/2000/svg">
<g id="check-box / default">
<path id="Vector" d="M2.81473 14.6667C2.40733 14.6667 2.05844 14.5217 1.76807 14.2319C1.47819 13.9415 1.33325 13.5926 1.33325 13.1852V2.81481C1.33325 2.40741 1.47819 2.05852 1.76807 1.76815C2.05844 1.47827 2.40733 1.33333 2.81473 1.33333H13.1851C13.5925 1.33333 13.9414 1.47827 14.2318 1.76815C14.5216 2.05852 14.6666 2.40741 14.6666 2.81481V13.1852C14.6666 13.5926 14.5216 13.9415 14.2318 14.2319C13.9414 14.5217 13.5925 14.6667 13.1851 14.6667H2.81473ZM6.96288 10.7963C7.06165 10.7963 7.15424 10.781 7.24066 10.7504C7.32708 10.7193 7.40733 10.6667 7.4814 10.5926L11.6851 6.38889C11.8209 6.25308 11.8888 6.08642 11.8888 5.88889C11.8888 5.69136 11.8147 5.51852 11.6666 5.37037C11.5308 5.23457 11.3579 5.16667 11.1481 5.16667C10.9382 5.16667 10.7654 5.23457 10.6295 5.37037L6.96288 9.03704L5.35177 7.42592C5.21597 7.29012 5.0493 7.22222 4.85177 7.22222C4.65424 7.22222 4.4814 7.29629 4.33325 7.44444C4.19745 7.58025 4.12955 7.75308 4.12955 7.96296C4.12955 8.17284 4.19745 8.34568 4.33325 8.48148L6.44436 10.5926C6.51844 10.6667 6.59868 10.7193 6.6851 10.7504C6.77152 10.781 6.86412 10.7963 6.96288 10.7963Z" fill="url(#paint0_linear_1_376)"/>
</g>
<defs>
<linearGradient id="paint0_linear_1_376" x1="14.6666" y1="8" x2="1.33325" y2="8" gradientUnits="userSpaceOnUse">
<stop stop-color="#FB6564"/>
<stop offset="1" stop-color="#A03CEA"/>
</linearGradient>
</defs>
</svg>
